<svg id="_007-trash" data-name="007-trash" xmlns="http://www.w3.org/2000/svg" width="13.358" height="16.441" viewBox="0 0 13.358 16.441">
  <path id="Path_12" data-name="Path 12" d="M60.073,2.055H57.248V1.541A1.543,1.543,0,0,0,55.706,0H53.651A1.543,1.543,0,0,0,52.11,1.541v.514H49.284A1.286,1.286,0,0,0,48,3.339v1.8a.514.514,0,0,0,.514.514h.281l.444,9.321a1.539,1.539,0,0,0,1.54,1.468h7.8a1.539,1.539,0,0,0,1.54-1.468l.444-9.321h.281a.514.514,0,0,0,.514-.514v-1.8A1.286,1.286,0,0,0,60.073,2.055Zm-6.936-.514a.514.514,0,0,1,.514-.514h2.055a.514.514,0,0,1,.514.514v.514H53.138Zm-4.11,1.8a.257.257,0,0,1,.257-.257H60.073a.257.257,0,0,1,.257.257V4.624h-11.3ZM59.093,14.924a.513.513,0,0,1-.513.489h-7.8a.513.513,0,0,1-.513-.489l-.442-9.272h9.711Z" transform="translate(-48)" fill="#9ba5b4"/>
  <path id="Path_13" data-name="Path 13" d="M240.514,215.707a.514.514,0,0,0,.514-.514v-6.679a.514.514,0,0,0-1.028,0v6.679A.514.514,0,0,0,240.514,215.707Z" transform="translate(-233.835 -201.321)" fill="#9ba5b4"/>
  <path id="Path_14" data-name="Path 14" d="M320.514,215.707a.514.514,0,0,0,.514-.514v-6.679a.514.514,0,0,0-1.028,0v6.679A.514.514,0,0,0,320.514,215.707Z" transform="translate(-311.266 -201.321)" fill="#9ba5b4"/>
  <path id="Path_15" data-name="Path 15" d="M160.514,215.707a.514.514,0,0,0,.514-.514v-6.679a.514.514,0,0,0-1.028,0v6.679A.514.514,0,0,0,160.514,215.707Z" transform="translate(-156.404 -201.321)" fill="#9ba5b4"/>
</svg>
