<svg xmlns="http://www.w3.org/2000/svg" width="40.616" height="49.88" viewBox="0 0 40.616 49.88">
  <g id="clipboard-verification-symbol-svgrepo-com" transform="translate(-56.829)">
    <path id="Path_176" data-name="Path 176" d="M77.515,3.563h-1.1A1.062,1.062,0,0,1,75.356,2.5V2.465A2.466,2.466,0,0,0,72.89,0h-.057a2.465,2.465,0,0,0-2.465,2.465V2.5a1.062,1.062,0,0,1-1.062,1.062h-1.1a2.116,2.116,0,0,0-2.116,2.116v.043a2.116,2.116,0,0,0,2.116,2.116h9.306a2.116,2.116,0,0,0,2.116-2.116V5.679A2.116,2.116,0,0,0,77.515,3.563Zm-4.653,0a1.069,1.069,0,1,1,1.069-1.069A1.069,1.069,0,0,1,72.862,3.563Zm4.759,41.329H59.679a2.85,2.85,0,0,1-2.85-2.85V7.838c0-1.574,1.276-2.85,2.138-2.85h5.775a3.677,3.677,0,0,0-.074.734,3.545,3.545,0,0,0,3.542,3.541h9.306a3.573,3.573,0,0,0,3.472-4.276h4.345c2.287,0,3.563,1.276,3.563,2.85V29.251c-.237-.015-.472-.036-.713-.036a11.344,11.344,0,0,0-2.85.375V12.826H60.392v28.5H76.817A11.317,11.317,0,0,0,77.621,44.892ZM88.182,31.353a9.263,9.263,0,1,0,9.263,9.263A9.263,9.263,0,0,0,88.182,31.353Zm6.053,7.36-5.7,6.413a1.425,1.425,0,0,1-1.955.166l-3.563-2.85A1.425,1.425,0,0,1,84.8,40.217l2.506,2,4.8-5.4a1.425,1.425,0,0,1,2.13,1.894ZM81.769,24.94H63.242a.713.713,0,0,1-.713-.713v-.713a.713.713,0,0,1,.713-.713H81.769a.713.713,0,0,1,.713.713v.713A.713.713,0,0,1,81.769,24.94Zm0-6.413H63.242a.713.713,0,0,1-.713-.713V17.1a.713.713,0,0,1,.713-.713H81.769a.713.713,0,0,1,.713.713v.713A.713.713,0,0,1,81.769,18.527ZM78.206,30.641H63.242a.713.713,0,0,1-.713-.713v-.713a.713.713,0,0,1,.713-.713H78.206a.713.713,0,0,1,.713.713v.713A.713.713,0,0,1,78.206,30.641Zm-1.425,6.413H63.242a.713.713,0,0,1-.713-.713v-.713a.713.713,0,0,1,.713-.713H76.781a.713.713,0,0,1,.713.713v.713A.713.713,0,0,1,76.781,37.054Z" fill="#fff"/>
  </g>
</svg>
