<svg id="delivery" xmlns="http://www.w3.org/2000/svg" width="18.124" height="15.103" viewBox="0 0 18.124 15.103">
  <path id="Path_114" data-name="Path 114" d="M15.859,4.265H8.851L8.609,3.51A2.266,2.266,0,0,0,6.464,2h-4.2A2.266,2.266,0,0,0,0,4.265V14.838A2.266,2.266,0,0,0,2.266,17.1H15.859a2.266,2.266,0,0,0,2.266-2.266V6.531A2.266,2.266,0,0,0,15.859,4.265Zm.755,10.572a.755.755,0,0,1-.755.755H2.266a.755.755,0,0,1-.755-.755V4.265a.755.755,0,0,1,.755-.755h4.2a.755.755,0,0,1,.717.514l.581,1.752h8.1a.755.755,0,0,1,.755.755Z" transform="translate(0 -2)" fill="#2d2b2b"/>
  <path id="Path_115" data-name="Path 115" d="M11.556,9.22a.781.781,0,0,0-1.072,0L8.218,11.486A.758.758,0,0,0,9.29,12.558l.974-.982V15.8a.755.755,0,0,0,1.51,0V11.576l.974.982a.758.758,0,1,0,1.072-1.072Z" transform="translate(-1.958 -3.715)" fill="#2d2b2b"/>
</svg>
