<svg id="folder_white" data-name="folder white" xmlns="http://www.w3.org/2000/svg" width="12.767" height="9.417" viewBox="0 0 12.767 9.417">
  <path id="Path_113" data-name="Path 113" d="M12.667,76.431a1.03,1.03,0,0,0-.448-.471,1.362,1.362,0,0,0-.662-.164H10.273v-1.07a1.507,1.507,0,0,0-1.5-1.5H5.136v-.214a1.442,1.442,0,0,0-.441-1.057,1.442,1.442,0,0,0-1.057-.441H1.5a1.442,1.442,0,0,0-1.057.441A1.442,1.442,0,0,0,0,73.014v6.42a1.441,1.441,0,0,0,.441,1.057,1.442,1.442,0,0,0,1.057.442H8.775a2.19,2.19,0,0,0,.936-.231,2.172,2.172,0,0,0,.776-.585l1.973-2.428a1.278,1.278,0,0,0,.307-.8A1.057,1.057,0,0,0,12.667,76.431ZM.856,73.014a.639.639,0,0,1,.642-.642h2.14a.639.639,0,0,1,.642.642v.428a.639.639,0,0,0,.642.642H8.774a.639.639,0,0,1,.642.642V75.8H4.28a2.16,2.16,0,0,0-.936.231,2.254,2.254,0,0,0-.776.585L.856,78.719v-5.7Zm10.935,4.133L9.824,79.575a1.528,1.528,0,0,1-1.05.5H1.5q-.354,0-.354-.234a.489.489,0,0,1,.12-.268L3.23,77.147a1.381,1.381,0,0,1,.478-.351,1.343,1.343,0,0,1,.572-.144h7.276q.354,0,.354.234A.436.436,0,0,1,11.791,77.147Z" transform="translate(0 -71.516)" fill="#fff"/>
</svg>
