<svg id="lock_white" data-name="lock white" xmlns="http://www.w3.org/2000/svg" width="9.087" height="11.108" viewBox="0 0 9.087 11.108">
  <path id="Path_99" data-name="Path 99" d="M72.583,24.845H66.019v-1.01a1.515,1.515,0,0,1,1.515-1.515h2.02a1.515,1.515,0,0,1,1.312.757.5.5,0,0,0,.874-.506,2.524,2.524,0,0,0-2.186-1.262h-2.02a2.522,2.522,0,0,0-2.524,2.525v1.01H64.5a.5.5,0,0,0-.5.5v4.544a2.522,2.522,0,0,0,2.524,2.524h4.039a2.522,2.522,0,0,0,2.524-2.524V25.349A.5.5,0,0,0,72.583,24.845Zm-.505,5.049a1.515,1.515,0,0,1-1.515,1.515H66.524a1.515,1.515,0,0,1-1.515-1.515V25.854h7.068Z" transform="translate(-64 -21.31)" fill="#fff"/>
  <path id="Path_100" data-name="Path 100" d="M214.646,258.7a1,1,0,0,0,.182.132v1.16a.5.5,0,1,0,1.01,0V258.8a1,1,0,0,0,.2-.169.986.986,0,1,0-1.393.063Zm.665-.752h0Z" transform="translate(-210.767 -251.404)" fill="#fff"/>
</svg>
