<svg xmlns="http://www.w3.org/2000/svg" width="16.019" height="18.802" viewBox="0 0 16.019 18.802">
  <g id="notif" transform="translate(-1694 -698)">
    <path id="Path_28" data-name="Path 28" d="M11.866,22.866a1.855,1.855,0,0,0,1.856-1.856H10.01A1.855,1.855,0,0,0,11.866,22.866Z" transform="translate(1690.257 693.936)" fill="#e53b3b"/>
    <path id="Path_29" data-name="Path 29" d="M19.156,17.162l-1.2-1.2v-5.6a6.524,6.524,0,0,0-5.13-6.371V2.9a1.4,1.4,0,0,0-2.8,0V3.991a6.524,6.524,0,0,0-5.13,6.371v5.6l-1.2,1.2a.933.933,0,0,0,.653,1.6H18.494A.934.934,0,0,0,19.156,17.162Z" transform="translate(1690.586 696.5)" fill="#e53b3b"/>
  </g>
</svg>
