<svg xmlns="http://www.w3.org/2000/svg" width="32.545" height="51.627" viewBox="0 0 32.545 51.627">
  <path id="open-access-svgrepo-com" d="M37.183,29.01a15.95,15.95,0,0,0-1.16-2.244V13.8a13.8,13.8,0,0,0-27.608,0v1.891h5.528V13.8a8.275,8.275,0,0,1,8.275-8.267A8.288,8.288,0,0,1,30.492,13.8v7.554a16.229,16.229,0,1,0,6.688,7.659Zm-15,17.081A10.745,10.745,0,1,1,32.931,35.346,10.759,10.759,0,0,1,22.186,46.09ZM26.8,35.4c0,6.073-9.117,6.073-9.117,0S26.8,29.313,26.8,35.4Z" transform="translate(-5.91 0)" fill="#fff"/>
</svg>
