<svg xmlns="http://www.w3.org/2000/svg" width="48.978" height="45.503" viewBox="0 0 48.978 45.503">
  <path id="work-tray-svgrepo-com" d="M47.824,47.808h-.96V33.66a1.262,1.262,0,0,0-1.154-1.347h-.92V28.354a1.262,1.262,0,0,0-1.154-1.347H42.25V23.048A1.262,1.262,0,0,0,41.1,21.7H7.881a1.262,1.262,0,0,0-1.154,1.347v3.959H5.341a1.262,1.262,0,0,0-1.154,1.347v3.959h-.92A1.262,1.262,0,0,0,2.114,33.66V47.808h-.96A1.262,1.262,0,0,0,0,49.155v16.7A1.262,1.262,0,0,0,1.154,67.2H47.824a1.262,1.262,0,0,0,1.154-1.347v-16.7A1.262,1.262,0,0,0,47.824,47.808ZM9.035,24.4H39.943v2.612H9.035ZM6.494,29.7H42.484v2.612H6.494V29.7ZM4.421,35.007H44.557v12.8H35.693a1.217,1.217,0,0,0-1.133,1.1l-.975,6H15.394l-.975-6a1.217,1.217,0,0,0-1.133-1.1H4.421Z" transform="translate(0 -21.701)" fill="#fff"/>
</svg>
